# xmcd
#
# Track frame offsets:
#	150
#	48586
#	96890
#	128030
#	171454
#
# Disc length: 2857 seconds
#
# Revision: 1
# Processed by: cddbd v1.5.2PL0 Copyright (c) Steve Scherf et al.
# Submitted via: audiograbber 1.83.01
#
DISCID=410b2705
DTITLE=40 Watt Sun - The Inside Room
DYEAR=2011
DGENRE=Doom Metal
TTITLE0=Restless
TTITLE1=Open My Eyes
TTITLE2=Between Times
TTITLE3=Carry Me Home
TTITLE4=This Alone
EXTD=
EXTT0=
EXTT1=
EXTT2=
EXTT3=
EXTT4=
PLAYORDER=
